<svg width="18" height="14" viewBox="0 0 18 14" fill="none" xmlns="http://www.w3.org/2000/svg">
<path d="M1.65 0C0.739062 0 0 0.739063 0 1.65C0 2.16906 0.244062 2.65719 0.66 2.97L7.81 8.3325C8.39781 8.7725 9.20219 8.7725 9.79 8.3325L16.94 2.97C17.3559 2.65719 17.6 2.16906 17.6 1.65C17.6 0.739063 16.8609 0 15.95 0H1.65ZM0 4.5375V11C0 12.2134 0.986562 13.2 2.2 13.2H15.4C16.6134 13.2 17.6 12.2134 17.6 11V4.5375L10.78 9.6525C9.60781 10.5325 7.99219 10.5325 6.82 9.6525L0 4.5375Z" fill="#1877F2"/>
</svg>
