<svg width="13" height="18" viewBox="0 0 13 18" fill="none" xmlns="http://www.w3.org/2000/svg">
<path d="M0.0032812 6.48313C0.0032812 2.90125 2.82516 0 6.30328 0C9.7814 0 12.6033 2.90125 12.6033 6.48313C12.6033 10.5841 8.65922 15.4997 7.01203 17.3731C6.62484 17.8131 5.97844 17.8131 5.59125 17.3731C3.94406 15.4997 0 10.5841 0 6.48313H0.0032812ZM6.30328 8.8C7.46156 8.8 8.40328 7.81344 8.40328 6.6C8.40328 5.38656 7.46156 4.4 6.30328 4.4C5.145 4.4 4.20328 5.38656 4.20328 6.6C4.20328 7.81344 5.145 8.8 6.30328 8.8Z" fill="#1877F2"/>
</svg>
