<svg width="17" height="17" viewBox="0 0 17 17" fill="none" xmlns="http://www.w3.org/2000/svg">
<path d="M9.75072 0C13.7538 0 17.0007 3.24687 17.0007 7.25C17.0007 7.66563 16.6663 8 16.2507 8C15.8351 8 15.5007 7.66563 15.5007 7.25C15.5007 4.075 12.9257 1.5 9.75072 1.5C9.33509 1.5 9.00072 1.16562 9.00072 0.75C9.00072 0.334375 9.33509 0 9.75072 0ZM10.0007 6C10.5538 6 11.0007 6.44688 11.0007 7C11.0007 7.55312 10.5538 8 10.0007 8C9.44759 8 9.00072 7.55312 9.00072 7C9.00072 6.44688 9.44759 6 10.0007 6ZM9.00072 3.75C9.00072 3.33437 9.33509 3 9.75072 3C12.0976 3 14.0007 4.90312 14.0007 7.25C14.0007 7.66563 13.6663 8 13.2507 8C12.8351 8 12.5007 7.66563 12.5007 7.25C12.5007 5.73125 11.2695 4.5 9.75072 4.5C9.33509 4.5 9.00072 4.16563 9.00072 3.75ZM3.50384 1.04375C4.11947 0.875 4.76322 1.19063 5.00697 1.77813L6.27259 4.81875C6.48822 5.33437 6.33822 5.93125 5.90384 6.2875L4.52572 7.41562C5.54134 9.65312 7.30697 11.4781 9.50384 12.5688L10.7101 11.0938C11.0632 10.6594 11.6601 10.5125 12.1788 10.725L15.2195 11.9937C15.807 12.2375 16.1226 12.8812 15.9538 13.4969L15.907 13.6687C15.357 15.6906 13.4038 17.4156 11.0195 16.9125C5.55072 15.7531 1.24759 11.45 0.0882179 5.98125C-0.414907 3.59687 1.31009 1.64375 3.32884 1.09063L3.50072 1.04375H3.50384Z" fill="#1877F2"/>
</svg>
